<?xml version="1.0" standalone="no"?>
<!DOCTYPE svg PUBLIC "-//W3C//DTD SVG 20010904//EN"
 "http://www.w3.org/TR/2001/REC-SVG-20010904/DTD/svg10.dtd">
<svg version="1.0" xmlns="http://www.w3.org/2000/svg"
 width="1908.000000pt" height="336.000000pt" viewBox="0 0 1908.000000 336.000000"
 preserveAspectRatio="xMidYMid meet">

<g transform="translate(0.000000,336.000000) scale(0.100000,-0.100000)"
fill="#000000" stroke="none">
<path d="M1265 3353 c-53 -14 -95 -66 -95 -120 0 -15 11 -68 25 -118 24 -88
68 -332 80 -451 l7 -61 41 -10 c23 -6 49 -13 57 -17 10 -4 21 4 32 24 29 51
74 72 147 67 62 -3 66 -5 106 -49 l41 -46 51 17 51 16 7 95 c8 121 39 304 65
400 32 114 35 159 12 196 -38 60 -61 64 -349 63 -142 -1 -267 -4 -278 -6z"/>
<path d="M7050 2590 l0 -760 220 0 220 0 0 40 c0 44 8 49 34 21 9 -10 45 -31
79 -47 51 -22 80 -28 162 -32 122 -5 192 8 287 55 121 61 229 193 267 328 35
120 31 305 -9 420 -26 77 -91 176 -148 225 -57 51 -165 105 -239 120 -88 19
-246 8 -310 -20 -29 -12 -58 -28 -64 -36 -6 -8 -15 -14 -20 -14 -5 0 -9 104
-9 230 l0 230 -235 0 -235 0 0 -760z m707 9 c73 -28 112 -99 113 -207 0 -109
-28 -165 -102 -203 -169 -86 -326 133 -230 322 43 85 132 121 219 88z"/>
<path d="M3265 3258 c2 -7 95 -296 205 -643 111 -346 212 -665 226 -708 l26
-77 261 0 262 0 120 379 c66 209 121 378 123 376 2 -1 54 -171 116 -376 l112
-374 263 0 263 0 229 715 c126 393 229 716 229 718 0 1 -104 1 -231 0 l-231
-3 -130 -405 c-71 -222 -131 -406 -133 -408 -2 -2 -14 29 -25 69 -12 41 -68
225 -124 409 l-101 335 -225 0 -224 0 -130 -402 c-72 -221 -132 -400 -135
-398 -2 3 -59 184 -126 402 l-122 398 -251 3 c-200 2 -251 0 -247 -10z"/>
<path d="M982 3145 c-40 -19 -72 -36 -72 -38 0 -3 22 -51 50 -108 27 -57 68
-159 90 -227 39 -115 40 -125 26 -147 -9 -13 -24 -26 -35 -30 -40 -12 -56 10
-99 140 -23 69 -62 168 -87 221 l-44 95 -62 -42 c-34 -23 -94 -72 -133 -109
l-70 -68 56 -60 c30 -33 65 -80 76 -104 12 -24 42 -142 66 -262 53 -260 64
-282 166 -334 260 -131 1091 -118 1297 21 69 46 87 91 132 324 22 111 49 222
60 248 11 25 48 74 81 109 l61 63 -53 48 c-29 27 -88 75 -132 107 l-79 59 -15
-23 c-25 -35 -85 -182 -127 -306 -29 -89 -42 -116 -61 -124 -34 -16 -74 12
-74 52 0 35 95 301 139 388 17 34 31 64 31 67 0 4 -135 75 -144 75 -7 0 -43
-118 -60 -196 -28 -128 -46 -271 -55 -441 -8 -141 -14 -181 -37 -252 -30 -92
-69 -146 -121 -167 -66 -28 -128 -12 -177 46 l-26 32 -26 -32 c-89 -105 -219
-70 -284 77 -34 77 -48 149 -69 359 -12 110 -30 250 -41 311 -19 108 -55 241
-69 255 -4 5 -39 -8 -79 -27z"/>
<path d="M6135 2960 c-345 -69 -550 -383 -465 -714 50 -196 194 -337 415 -406
99 -31 309 -39 425 -16 101 20 210 70 271 125 l44 40 -120 121 -121 120 -70
-36 c-87 -44 -172 -55 -255 -31 -52 16 -108 58 -130 99 -9 17 6 18 379 18
l389 0 7 64 c7 71 -6 186 -30 258 -8 26 -33 74 -54 107 -113 174 -294 262
-534 260 -61 -1 -129 -5 -151 -9z m207 -310 c48 -14 97 -55 115 -98 8 -19 12
-36 10 -38 -2 -3 -84 -3 -181 -2 l-176 3 22 44 c26 51 60 79 109 91 48 11 59
11 101 0z"/>
<path d="M417 2671 c-84 -127 -149 -274 -186 -423 -12 -49 -20 -92 -16 -98 9
-14 401 -140 436 -140 31 0 99 24 99 35 0 4 -11 21 -24 38 -36 47 -42 69 -91
304 -25 118 -50 224 -56 235 -14 26 -99 118 -109 118 -4 0 -28 -31 -53 -69z"/>
<path d="M2559 2693 c-59 -67 -72 -103 -114 -313 -44 -215 -55 -252 -95 -302
l-29 -36 40 -16 c62 -25 99 -20 272 38 187 63 237 83 237 95 0 28 -56 216 -84
285 -48 115 -156 296 -177 296 -4 0 -26 -21 -50 -47z"/>
<path d="M83 1423 c6 -178 25 -289 72 -430 146 -434 498 -781 936 -921 163
-53 256 -66 444 -66 257 0 424 38 650 148 241 118 430 288 584 526 89 137 200
410 167 410 -8 0 -27 3 -43 6 -29 6 -30 4 -52 -63 -28 -85 -111 -253 -155
-313 -32 -44 -38 -47 -152 -83 -131 -40 -285 -80 -290 -75 -1 2 18 35 43 73
55 86 111 197 147 292 l27 72 67 21 c37 12 111 38 165 58 l98 36 -96 17 c-85
16 -101 16 -137 3 -54 -19 -58 -18 -58 10 0 20 -6 24 -41 30 -22 4 -44 4 -48
1 -5 -2 -11 -23 -15 -45 -4 -29 -13 -43 -29 -50 -57 -25 -453 -90 -545 -90
-34 0 -38 3 -55 45 -21 51 -70 97 -121 116 l-36 13 0 78 c0 84 2 82 -62 93
l-38 6 0 -88 0 -88 -55 -29 c-59 -31 -102 -74 -117 -118 -8 -23 -16 -28 -42
-28 -106 0 -547 75 -605 103 -22 10 -29 25 -44 92 -9 44 -20 133 -24 198 -4
74 -10 117 -17 117 -6 1 -31 5 -55 9 l-44 9 7 -109 c3 -60 13 -144 21 -187 8
-42 15 -80 15 -84 0 -15 -313 112 -339 137 -10 10 -15 53 -19 154 -3 78 -8
143 -11 145 -3 2 -28 7 -55 11 l-49 7 6 -169z m371 -364 l129 -47 32 -84 c41
-107 86 -194 142 -282 24 -37 43 -70 41 -71 -5 -5 -238 61 -301 85 -64 24 -90
56 -166 208 -34 68 -101 248 -101 272 0 5 21 -1 48 -12 26 -12 105 -43 176
-69z m416 -113 c69 -14 198 -34 288 -43 l164 -18 20 -47 c24 -55 80 -110 132
-129 l36 -13 0 -104 0 -104 -127 7 c-212 12 -400 39 -424 61 -37 33 -166 236
-209 326 -46 98 -46 101 -22 94 9 -3 73 -17 142 -30z m1470 13 c0 -24 -93
-202 -149 -285 -103 -152 -89 -143 -221 -158 -63 -8 -170 -18 -237 -21 l-123
-8 0 106 0 105 31 7 c48 11 115 78 133 133 l16 47 157 18 c87 9 208 28 268 41
61 13 113 24 118 25 4 0 7 -4 7 -10z m-1614 -474 c76 -19 146 -35 156 -35 9 0
48 -31 87 -70 76 -75 194 -172 256 -210 55 -34 29 -36 -72 -5 -179 54 -380
169 -513 293 -36 34 -62 61 -59 62 3 0 68 -16 145 -35z m1729 -31 c-126 -116
-286 -212 -457 -272 -78 -28 -228 -65 -235 -58 -2 1 35 28 82 60 85 58 143
105 245 201 55 52 55 52 185 79 72 14 150 33 175 41 77 24 77 16 5 -51z
m-1082 -61 l137 -6 0 -124 0 -125 -77 42 c-100 53 -225 138 -283 190 l-45 41
65 -5 c36 -3 127 -9 203 -13z m587 11 c0 -24 -304 -234 -339 -234 -7 0 -11 38
-11 110 l0 110 93 1 c75 1 167 8 245 17 6 1 12 -1 12 -4z"/>
</g>
</svg>
